<?xml version="1.0" encoding="utf-8"?>
<!-- Generator: Adobe Illustrator 22.0.0, SVG Export Plug-In . SVG Version: 6.00 Build 0)  -->
<svg version="1.1" id="图层_1" xmlns="http://www.w3.org/2000/svg" xmlns:xlink="http://www.w3.org/1999/xlink" x="0px" y="0px"
	 viewBox="0 0 22 22" style="enable-background:new 0 0 22 22;" xml:space="preserve">
<style type="text/css">
	.st0{display:none;fill:#FFA525;stroke:#FF8827;stroke-width:0.75;stroke-miterlimit:10;}
	.st1{fill:#216AFF;stroke:#0F4CF4;stroke-width:0.5;stroke-miterlimit:10;}
	.st2{display:none;fill:#FFFFFF;}
	.st3{clip-path:url(#SVGID_2_);}
	.st4{fill:#FFFFFF;}
</style>
<path class="st0" d="M20.6,10c0-5.3-4.3-9.6-9.6-9.6c-5.3,0-9.6,4.3-9.6,9.6c0,3.1,1.5,5.9,3.8,7.6l0,0c0.2,0.2,5.8,4,5.8,4
	s5.6-3.8,5.8-4l0,0C19.1,15.8,20.6,13.1,20.6,10L20.6,10z M20.6,10"/>
<path class="st1" d="M20.7,10c0-5.4-4.3-9.7-9.7-9.7c-5.4,0-9.7,4.3-9.7,9.7c0,3.1,1.5,5.9,3.8,7.7l0,0c0.2,0.2,5.9,4.1,5.9,4.1
	s5.6-3.9,5.9-4.1l0,0C19.2,15.9,20.7,13.1,20.7,10L20.7,10z M20.7,10"/>
<path class="st2" d="M13.9,15.2c0,0,0.6-3.7,0.7-3.6c1.1,0.5,2,1.2,2,2v0.4c0,0.8-2,1.4-2,1.4L13.9,15.2z M8.4,15.2
	c0,0-0.6-3.8-0.5-3.8c0.3-0.1,0.5-0.3,0.8-0.4c0.1,0,1.1-0.3,0.8-1.1C8.8,9.2,8.4,8.9,8.4,7.4h5.2c0,1.5-0.5,1.9-1.1,2.6h0
	c-0.3,0.9,0.6,1.1,0.7,1.1c0.3,0.1,0.6,0.2,0.9,0.4c0.1,0-0.5,3.8-0.5,3.8H8.4z M7.4,15.3c0,0-2-0.7-2-1.4v-0.4c0-0.7,0.9-1.4,2-2
	c0.1,0,0.7,3.6,0.7,3.6L7.4,15.3z M13.9,5.8c0-1.7-1.7-2.3-2.9-2.3c-1,0-2.9,0.5-2.9,2.3C8.1,6,7.6,6,7.5,6.8h7
	C14.2,6,13.9,6,13.9,5.8L13.9,5.8z M13.9,5.8"/>
<g>
	<defs>
		<path id="SVGID_1_" d="M2.7,8c0,4.6,3.7,8.3,8.3,8.3c4.6,0,8.3-3.7,8.3-8.3c0-4.6-3.7-8.3-8.3-8.3C6.4-0.3,2.7,3.4,2.7,8L2.7,8z
			 M2.7,8"/>
	</defs>
	<clipPath id="SVGID_2_">
		<use xlink:href="#SVGID_1_"  style="overflow:visible;"/>
	</clipPath>
	<g class="st3">
		<path class="st4" d="M13.1,5.7l-1-0.7C12,4.9,11.9,5,11.9,5l-1.1,1.4C11.6,7,11.5,7.7,11.3,8c-0.2,0.5-0.7,0.8-1.7,0.5
			c0.1,0.6,1,1,1.5,0.3l2-2.8C13.2,5.9,13.2,5.8,13.1,5.7L13.1,5.7z M14.8,7.3c0.1-0.1,0.2-0.2,0.3-0.1C15.6,8,15.4,9,14.7,10
			l-0.8,1.2c-0.6,0.8-1.9-0.1-1.2-0.9L14.8,7.3z M14.7,7.2l-2.2,3c-0.7,0.9-2-0.1-1.4-1L13.4,6c0.1-0.1,0.2-0.1,0.3-0.1l1,0.8
			C14.7,6.9,14.8,7.1,14.7,7.2L14.7,7.2z M11.7,4.6c0.1,0.1,0.1,0.2,0.1,0.2l-1.1,1.5L8.9,5.6l0.7-1c0.5-0.7,1.1-0.7,1.7-0.3
			L11.7,4.6z M11.7,4.6"/>
		<path class="st4" d="M8.5,8.5c-0.1,0.1,0,0.2,0.1,0.2l1.2,0.6c0.2,0.2,0.3,0.2,0.3,0.5l0.5,2.5c0.1,0.1,0.2,0.1,0.2-0.1l-0.2-2.7
			c0.1,1,0.8,1.3,1.6,1.1c-0.1,0.5,1.1,1.5,1.9,0.5l0.8-1.2c0.5-0.7,0.7-1.5,0.7-1.8c0.1,0.3,0.1,0.8-0.2,1.4l-1.9,4l0.4,8.5H8.1
			l0.8-8.5L6.5,9.3C6.4,9,6.3,8.8,6.5,8.5L7.8,6c0.3-0.3,0.7-0.3,1-0.2l1.8,0.7c0.5,0.2,0.7,0.7,0.5,1.2C11,7.8,11,7.9,11,8
			c-0.2,0.3-0.7,0.5-1.1,0.3C9.7,8.2,9.6,8.1,9.5,8.1C9,7.9,8.8,8.1,8.5,8.5L8.5,8.5z M10.9,14.3l0.1,5.3c0,0.1,0.2,0.1,0.2,0
			l0.2-5.3c0-0.1,0.1-0.2,0.2-0.2L13,14c0.1,0,0.1-0.1,0-0.1l-3.3-0.1c-0.1,0-0.2,0.2,0,0.2l1.1,0.1C10.8,14.1,10.9,14.2,10.9,14.3
			L10.9,14.3z M10.9,14.3"/>
	</g>
</g>
</svg>
