<?xml version="1.0" encoding="utf-8"?>
<!-- Generator: Adobe Illustrator 22.0.0, SVG Export Plug-In . SVG Version: 6.00 Build 0)  -->
<svg version="1.1" id="图层_1" xmlns="http://www.w3.org/2000/svg" xmlns:xlink="http://www.w3.org/1999/xlink" x="0px" y="0px"
	 viewBox="0 0 22 22" style="enable-background:new 0 0 22 22;" xml:space="preserve">
<style type="text/css">
	.st0{display:none;fill:#FFA525;stroke:#FF8827;stroke-width:0.75;stroke-miterlimit:10;}
	.st1{fill:#216AFF;stroke:#0F4CF4;stroke-width:0.5;stroke-miterlimit:10;}
	.st2{fill:#FFFFFF;}
</style>
<path class="st0" d="M20.6,10c0-5.3-4.3-9.6-9.6-9.6c-5.3,0-9.6,4.3-9.6,9.6c0,3.1,1.5,5.9,3.8,7.6l0,0c0.2,0.2,5.8,4,5.8,4
	s5.6-3.8,5.8-4l0,0C19.1,15.8,20.6,13.1,20.6,10L20.6,10z M20.6,10"/>
<path class="st1" d="M20.7,10c0-5.4-4.3-9.7-9.7-9.7c-5.4,0-9.7,4.3-9.7,9.7c0,3.1,1.5,5.9,3.8,7.7l0,0c0.2,0.2,5.9,4.1,5.9,4.1
	s5.6-3.9,5.9-4.1l0,0C19.2,15.9,20.7,13.1,20.7,10L20.7,10z M20.7,10"/>
<path class="st2" d="M13.9,15.2c0,0,0.6-3.7,0.7-3.6c1.1,0.5,2,1.2,2,2v0.4c0,0.8-2,1.4-2,1.4L13.9,15.2z M8.4,15.2
	c0,0-0.6-3.8-0.5-3.8c0.3-0.1,0.5-0.3,0.8-0.4c0.1,0,1.1-0.3,0.8-1.1C8.8,9.2,8.4,8.9,8.4,7.4h5.2c0,1.5-0.5,1.9-1.1,2.6h0
	c-0.3,0.9,0.6,1.1,0.7,1.1c0.3,0.1,0.6,0.2,0.9,0.4c0.1,0-0.5,3.8-0.5,3.8H8.4z M7.4,15.3c0,0-2-0.7-2-1.4v-0.4c0-0.7,0.9-1.4,2-2
	c0.1,0,0.7,3.6,0.7,3.6L7.4,15.3z M13.9,5.8c0-1.7-1.7-2.3-2.9-2.3c-1,0-2.9,0.5-2.9,2.3C8.1,6,7.6,6,7.5,6.8h7
	C14.2,6,13.9,6,13.9,5.8L13.9,5.8z M13.9,5.8"/>
</svg>
