<?xml version="1.0" encoding="utf-8"?>
<!-- Generator: Adobe Illustrator 22.0.0, SVG Export Plug-In . SVG Version: 6.00 Build 0)  -->
<svg version="1.1" id="图层_1" xmlns="http://www.w3.org/2000/svg" xmlns:xlink="http://www.w3.org/1999/xlink" x="0px" y="0px"
	 viewBox="0 0 22 22" style="enable-background:new 0 0 22 22;" xml:space="preserve">
<style type="text/css">
	.st0{display:none;fill:#1EA7FB;}
	.st1{fill:#216AFF;stroke:#0F4CF4;stroke-width:0.5;stroke-miterlimit:10;}
	.st2{fill:#FFFFFF;}
</style>
<path class="st0" d="M11-1C8.5-1,6.1,0,4.4,1.7C2.6,3.5,1.6,5.9,1.6,8.4C1.6,15.9,11,23,11,23s9.4-7.1,9.4-14.6
	C20.4,3.2,16.2-1,11-1L11-1z M11,16.2c-2,0.1-3.9-0.7-5.4-2.1c-1.4-1.4-2.2-3.3-2.2-5.3c0-2,0.8-4,2.2-5.5C7,1.8,8.9,1,11,1
	c2,0,4,0.8,5.4,2.3c1.4,1.5,2.2,3.4,2.2,5.5c0,2-0.8,3.9-2.2,5.3C14.9,15.5,13,16.2,11,16.2L11,16.2z M11,16.2"/>
<path class="st1" d="M20.7,10c0-5.4-4.3-9.7-9.7-9.7c-5.4,0-9.7,4.3-9.7,9.7c0,3.1,1.5,5.9,3.8,7.7l0,0c0.2,0.2,5.9,4.1,5.9,4.1
	s5.6-3.9,5.9-4.1l0,0C19.2,15.9,20.7,13.1,20.7,10L20.7,10z M20.7,10"/>
<path class="st2" d="M16.3,13.1h-0.7v-6c0-0.1-0.1-0.3-0.1-0.4c-0.1-0.1-0.2-0.1-0.4-0.1H13V5.2c0-0.4-0.1-0.7-0.5-0.7H7.4
	C7.2,4.4,7,4.5,6.8,4.7C6.7,4.8,6.6,5,6.6,5.2v7.9H5.8c-0.1,0-0.1,0-0.2,0.1c0,0-0.1,0.1-0.1,0.2v1c0,0.1,0,0.1,0.1,0.2
	c0,0,0.1,0.1,0.2,0.1h10.5c0.1,0,0.2-0.1,0.3-0.2v-1C16.5,13.2,16.4,13.1,16.3,13.1L16.3,13.1z M9.4,12.1c0,0.3-0.2,0.5-0.5,0.5H8.4
	c-0.1,0-0.3,0-0.4-0.1c-0.1-0.1-0.2-0.2-0.2-0.4v-0.5c0-0.3,0.2-0.5,0.5-0.5h0.5c0.3,0,0.5,0.2,0.5,0.5V12.1z M9.4,9.6
	c0,0.3-0.2,0.5-0.5,0.5H8.4c-0.1,0-0.3,0-0.4-0.1C7.9,9.9,7.9,9.8,7.9,9.6V9.1c0-0.3,0.2-0.5,0.5-0.5h0.5c0.3,0,0.5,0.2,0.5,0.5V9.6
	z M9.4,7.2c0,0.3-0.2,0.5-0.5,0.5H8.4c-0.1,0-0.3,0-0.4-0.1C7.9,7.4,7.9,7.3,7.9,7.2V6.7c0-0.3,0.2-0.5,0.5-0.5h0.5
	c0.3,0,0.5,0.2,0.5,0.5V7.2z M11.7,12.1c0,0.3-0.2,0.5-0.5,0.5h-0.5c-0.1,0-0.3,0-0.4-0.1c-0.1-0.1-0.2-0.2-0.2-0.4v-0.5
	c0-0.3,0.2-0.5,0.5-0.5h0.5c0.3,0,0.5,0.2,0.5,0.5V12.1z M11.7,9.6c0,0.3-0.2,0.5-0.5,0.5h-0.5c-0.1,0-0.3,0-0.4-0.1
	c-0.1-0.1-0.2-0.2-0.2-0.4V9.1c0-0.3,0.2-0.5,0.5-0.5h0.5c0.3,0,0.5,0.2,0.5,0.5V9.6z M11.7,7.2c0,0.3-0.2,0.5-0.5,0.5h-0.5
	c-0.1,0-0.3,0-0.4-0.1c-0.1-0.1-0.2-0.2-0.2-0.4V6.7c0-0.3,0.2-0.5,0.5-0.5h0.5c0.3,0,0.5,0.2,0.5,0.5V7.2z M14.5,11.4
	c0,0.1-0.1,0.3-0.3,0.3h-0.5c-0.1,0-0.3-0.1-0.3-0.3v-0.5c0-0.1,0.1-0.3,0.3-0.3h0.5c0.1,0,0.3,0.1,0.3,0.3V11.4z M14.5,9.4
	c0,0.1-0.1,0.3-0.3,0.3h-0.5c-0.1,0-0.3-0.1-0.3-0.3V8.9c0-0.1,0.1-0.3,0.3-0.3h0.5c0.1,0,0.3,0.1,0.3,0.3V9.4z M14.5,9.4"/>
</svg>
